<svg xmlns="http://www.w3.org/2000/svg" width="24" height="24" viewBox="0 0 24 24" fill="none">
    <path opacity="0.4" fill-rule="evenodd" clip-rule="evenodd" d="M12.7929 11.2071 C12.4024 10.8166 12.4024 10.1834 12.7929 9.7929 L18.5644 4.0214 C18.165 4.001 17.6624 4 17 4 L15 4 C14.4477 4 14 3.5523 14 3 C14 2.4477 14.4477 2 15 2 L17.0658 2 C17.9523 1.9999 18.7161 1.9999 19.3278 2.0821 C19.9833 2.1703 20.6117 2.369 21.1213 2.8787 C21.631 3.3883 21.8297 4.0167 21.9179 4.6722 C22.0001 5.2839 22.0001 6.0477 22 6.9342 C22 6.956 22 6.978 22 7 L22 9 C22 9.5523 21.5523 10 21 10 C20.4477 10 20 9.5523 20 9 L20 7 C20 6.3376 19.999 5.835 19.9786 5.4356 L14.2071 11.2071 C13.8166 11.5976 13.1834 11.5976 12.7929 11.2071" fill="currentColor"/>
    <path fill-rule="evenodd" clip-rule="evenodd" d="M9 20 C11.7614 20 14 17.7614 14 15 C14 12.2386 11.7614 10 9 10 C6.2386 10 4 12.2386 4 15 C4 17.7614 6.2386 20 9 20 M16 15 C16 18.866 12.866 22 9 22 C5.134 22 2 18.866 2 15 C2 11.134 5.134 8 9 8 C12.866 8 16 11.134 16 15" fill="currentColor"/>
</svg>