<svg xmlns="http://www.w3.org/2000/svg" width="24" height="24" viewBox="0 0 24 24" fill="none">
    <path opacity="0.4" d="M3 15 C3 11.6863 5.6863 9 9 9 C12.3137 9 15 11.6863 15 15 C15 18.3137 12.3137 21 9 21 C5.6863 21 3 18.3137 3 15" fill="currentColor"/>
    <path d="M21 9 L21 3 L15 3 M20.5 3.5 L13.5 10.5" stroke="currentColor" stroke-width="2" stroke-linecap="round" stroke-linejoin="round"/>
    <path d="M3 15 C3 11.6863 5.6863 9 9 9 C12.3137 9 15 11.6863 15 15 C15 18.3137 12.3137 21 9 21 C5.6863 21 3 18.3137 3 15" stroke="currentColor" stroke-width="2" stroke-linecap="round" stroke-linejoin="round"/>
</svg>