<svg xmlns="http://www.w3.org/2000/svg" width="24" height="24" viewBox="0 0 24 24" fill="none">
    <path fill-rule="evenodd" clip-rule="evenodd" d="M14 15 C14 17.7614 11.7614 20 9 20 C6.2386 20 4 17.7614 4 15 C4 12.2386 6.2386 10 9 10 C11.7614 10 14 12.2386 14 15 M9 22 C12.866 22 16 18.866 16 15 C16 13.4277 15.4816 11.9764 14.6064 10.8078 L20 5.4142 L20 9 C20 9.5523 20.4477 10 21 10 C21.5523 10 22 9.5523 22 9 L22 3 C22 2.4477 21.5523 2 21 2 L15 2 C14.4477 2 14 2.4477 14 3 C14 3.5523 14.4477 4 15 4 L18.5858 4 L13.1922 9.3936 C12.0236 8.5184 10.5723 8 9 8 C5.134 8 2 11.134 2 15 C2 18.866 5.134 22 9 22" fill="currentColor"/>
</svg>